<svg xmlns="http://www.w3.org/2000/svg" viewBox="0 0 500 500"><g id="freepik--Floor--inject-59"><path d="M419.12,236.43c-94-54.28-245.94-54.28-339.34,0S-13.13,378.71,80.88,433s245.94,54.28,339.35,0S513.13,290.71,419.12,236.43Z" style="fill:#f5f5f5"></path></g><g id="freepik--Shadow--inject-59"><path d="M288,317.74c-30.29-17.49-79.25-17.49-109.35,0s-29.94,45.85.36,63.34,79.25,17.49,109.35,0S318.25,335.24,288,317.74Z" style="fill:#e0e0e0"></path></g><g id="freepik--Plants--inject-59"><path d="M101.28,259.05l5.69-4.67c.35-9,.7-18.44-.79-27.3s-5-17.63-11.31-24c-2.66-2.67-6-4.94-9.69-5.37s-7.92,1.46-9.2,5c-1.35,3.71.68,7.72,2.85,11,4.61,7,10.12,13.42,14.65,20.49S101.17,250.66,101.28,259.05Z" style="fill:#f0f0f0"></path><path d="M101.28,260.28,95.58,265c-4.21-8.89-10-17.12-18-22.82-2.74-2-5.68-3.69-8-6.15s-3.91-5.87-3.24-9.16c.86-4.24,5.35-7,9.67-7.06s8.37,2.17,11.72,4.9C98,233.05,103.86,247.27,101.28,260.28Z" style="fill:#f0f0f0"></path><path d="M101.28,260.28,95.58,265c-4.21-8.89-10-17.12-18-22.82-2.74-2-5.68-3.69-8-6.15s-3.91-5.87-3.24-9.16c.86-4.24,5.35-7,9.67-7.06s8.37,2.17,11.72,4.9C98,233.05,103.86,247.27,101.28,260.28Z" style="opacity:0.1"></path><path d="M104.49,256.91h0a.49.49,0,0,0,.48-.5c-.23-13.32-3.22-37.91-20.63-53a.49.49,0,1,0-.65.74c7.35,6.39,19.76,21.67,20.29,52.31A.5.5,0,0,0,104.49,256.91Z" style="fill:#fff"></path><path d="M98.52,263h0a.49.49,0,0,0,.44-.54c-1.17-12-6.39-28.46-24.66-39a.5.5,0,0,0-.67.18.49.49,0,0,0,.18.68c17.9,10.35,23,26.51,24.17,38.25A.49.49,0,0,0,98.52,263Z" style="fill:#fff"></path><path d="M438.44,292.67c2.66-2.87,5.68-5.4,8.14-8.44,1.68-2.08,3.14-4.66,2.67-7.28a6.65,6.65,0,0,0-4.94-5,10.15,10.15,0,0,0-7.18,1.09,21.77,21.77,0,0,0-5.68,4.72,53.16,53.16,0,0,0-13.76,37.13,7.91,7.91,0,0,0,1.1,4.45,4.38,4.38,0,0,0,4.4,1.68c4.18-.94,4-6.51,4.9-9.72a45.74,45.74,0,0,1,10.35-18.64Z" style="fill:#e6e6e6"></path><path d="M421.89,316.8a.35.35,0,0,0,.31-.32c.74-6.55,4.41-28.85,20.74-40.53a.36.36,0,1,0-.42-.59c-16.57,11.86-20.29,34.41-21,41a.36.36,0,0,0,.32.4Z" style="fill:#f0f0f0"></path><path d="M422.76,318.8a11,11,0,0,0,4.55,7.31,14.11,14.11,0,0,0,7.51,1.79,33.73,33.73,0,0,0,7.84-1.3c1.27-.34,2.69-.81,2.92-2.33a2.72,2.72,0,0,0-.73-2.23,8.77,8.77,0,0,0-.75-.74.8.8,0,0,1,.52-1.4,18.35,18.35,0,0,0,2.22-.12A9.66,9.66,0,0,0,451.6,318a7.67,7.67,0,0,0,2.34-3,3,3,0,0,0-.09-3.12,3.28,3.28,0,0,0-1.66-.86c-.54-.16-1.08-.3-1.63-.42a.74.74,0,0,1-.08-1.42l2.4-.81a4.47,4.47,0,0,0,1.85-1,3.87,3.87,0,0,0,.67-3.18c-.19-1.48-.6-2.92-.84-4.4a9.29,9.29,0,0,1,.14-4.42,37.07,37.07,0,0,0-13.12,0,9.25,9.25,0,0,0-3.67,1.32,5.21,5.21,0,0,0-2,4.69.34.34,0,0,1-.65.13l-1.3-2.85a1.78,1.78,0,0,0-2.27-.9,10.83,10.83,0,0,0-3.59,2.45,6,6,0,0,0-1.76,4.26A39.1,39.1,0,0,0,427,311a.59.59,0,0,1-1,.57l-.06-.06a2,2,0,0,0-1.38-.5c-1.33.07-1.76,1.38-1.92,2.51A22.21,22.21,0,0,0,422.76,318.8Z" style="fill:#e6e6e6"></path><path d="M422.76,318.8a11,11,0,0,0,4.55,7.31,14.11,14.11,0,0,0,7.51,1.79,33.73,33.73,0,0,0,7.84-1.3c1.27-.34,2.69-.81,2.92-2.33a2.72,2.72,0,0,0-.73-2.23,8.77,8.77,0,0,0-.75-.74.8.8,0,0,1,.52-1.4,18.35,18.35,0,0,0,2.22-.12A9.66,9.66,0,0,0,451.6,318a7.67,7.67,0,0,0,2.34-3,3,3,0,0,0-.09-3.12,3.28,3.28,0,0,0-1.66-.86c-.54-.16-1.08-.3-1.63-.42a.74.74,0,0,1-.08-1.42l2.4-.81a4.47,4.47,0,0,0,1.85-1,3.87,3.87,0,0,0,.67-3.18c-.19-1.48-.6-2.92-.84-4.4a9.29,9.29,0,0,1,.14-4.42,37.07,37.07,0,0,0-13.12,0,9.25,9.25,0,0,0-3.67,1.32,5.21,5.21,0,0,0-2,4.69.34.34,0,0,1-.65.13l-1.3-2.85a1.78,1.78,0,0,0-2.27-.9,10.83,10.83,0,0,0-3.59,2.45,6,6,0,0,0-1.76,4.26A39.1,39.1,0,0,0,427,311a.59.59,0,0,1-1,.57l-.06-.06a2,2,0,0,0-1.38-.5c-1.33.07-1.76,1.38-1.92,2.51A22.21,22.21,0,0,0,422.76,318.8Z" style="opacity:0.1"></path><path d="M429.24,325.88a54,54,0,0,1,4.21-9.95.4.4,0,0,1,.14-.26c.1-.17.19-.34.28-.51a33,33,0,0,0-2.68-11.9.36.36,0,1,1,.64-.31,33.16,33.16,0,0,1,2.7,11.07,47.87,47.87,0,0,1,16.27-17,.37.37,0,0,1,.5.13.36.36,0,0,1-.13.49c-7.91,4.74-13.18,11.71-16.49,17.56a22,22,0,0,1,12.57-.84.36.36,0,0,1,0,.71h-.14c-.07,0-6.82-1.73-13,1.17a53.08,53.08,0,0,0-4.18,9.86.35.35,0,0,1-.3.26.34.34,0,0,1-.14,0A.36.36,0,0,1,429.24,325.88Z" style="fill:#f0f0f0"></path></g><g id="freepik--Rocks--inject-59"><polygon points="440.83 322.77 425.67 308.84 419.22 308.14 409.86 313.2 408.41 317.84 404.13 321.82 402.32 327.38 411.1 330.99 412 332.31 417.93 334.93 420.56 338.54 428.11 338.42 431.14 335.27 439.73 333.88 446 331.25 445.54 327.37 443.82 323.56 440.83 322.77" style="fill:#e0e0e0"></polygon><polygon points="440.83 322.77 443.82 323.56 445.54 327.37 438.9 330.48 426.62 332.19 424.1 331.56 421.54 324.44 425.13 330.49 438.08 328.8 442.83 326.6 443.05 323.99 440.83 322.77" style="opacity:0.1"></polygon><polygon points="434.55 317 436.95 322.47 430.46 322.28 422.44 324.67 430.28 320.14 433.92 321.05 433.88 318.7 431.07 313.81 434.55 317" style="opacity:0.1"></polygon><polygon points="433.45 326.27 429.75 325.35 430.46 322.28 436.95 322.47 433.45 326.27" style="opacity:0.30000000000000004"></polygon><polygon points="424.24 328.99 429.75 325.35 430.46 322.28 422.44 324.67 424.24 328.99" style="opacity:0.4"></polygon><polygon points="425.67 308.84 424.86 314.96 421.62 317.99 418.78 313.99 419.22 308.14 425.67 308.84" style="opacity:0.2"></polygon><polygon points="420.34 319.59 417.27 314.28 419.22 308.14 418.78 313.99 421.62 317.99 420.34 319.59" style="opacity:0.1"></polygon><polygon points="421.54 324.44 420.34 319.59 417.27 314.28 419.22 308.14 409.86 313.2 412.95 316.98 418.6 319.54 421.54 324.44" style="opacity:0.30000000000000004"></polygon><polygon points="420.56 338.54 424.1 331.56 421.54 324.44 418.6 319.54 412.95 316.98 409.86 313.2 408.41 317.84 412.73 317.34 417.28 320.62 419.52 324.32 420.56 338.54" style="opacity:0.4"></polygon><polygon points="417.93 334.93 419.93 329.89 420.56 338.54 417.93 334.93" style="opacity:0.30000000000000004"></polygon><polygon points="412 332.31 411.79 327.64 409.99 320.14 404 328.07 411.1 330.99 412 332.31" style="opacity:0.4"></polygon><polygon points="412.73 317.34 409.99 320.14 404 328.07 402.32 327.38 404.13 321.82 408.41 317.84 412.73 317.34" style="opacity:0.30000000000000004"></polygon><polygon points="417.93 334.93 412 332.31 411.79 327.64 409.99 320.14 412.73 317.34 417.28 320.62 419.52 324.32 419.93 329.89 417.93 334.93" style="opacity:0.2"></polygon><polygon points="426.62 332.19 428.11 338.42 420.56 338.54 424.1 331.56 426.62 332.19" style="opacity:0.30000000000000004"></polygon><polygon points="431.14 335.27 429.3 331.82 426.62 332.19 428.11 338.42 431.14 335.27" style="opacity:0.4"></polygon><polygon points="436.5 334.4 434.97 331.03 429.3 331.82 431.14 335.27 436.5 334.4" style="opacity:0.30000000000000004"></polygon><polygon points="439.73 333.88 438.9 330.48 434.97 331.03 436.5 334.4 439.73 333.88" style="opacity:0.4"></polygon><polygon points="445.54 327.37 438.9 330.48 439.73 333.88 446 331.25 445.54 327.37" style="opacity:0.30000000000000004"></polygon><polygon points="433.88 318.7 433.92 321.05 430.28 320.14 422.44 324.67 424.24 328.99 421.54 324.44 420.34 319.59 421.62 317.99 424.86 314.96 425.67 308.84 431.07 313.81 433.88 318.7" style="opacity:0.05"></polygon><polygon points="445.54 327.37 443.82 323.56 440.83 322.77 434.55 317 434.55 317 431.07 313.81 425.67 308.84 419.22 308.14 409.86 313.2 408.41 317.84 404.13 321.82 402.32 327.38 404 328.07 411.1 330.99 412 332.31 417.93 334.93 420.56 338.54 428.11 338.42 431.14 335.27 439.73 333.88 446 331.25 445.54 327.37" style="fill:#fff;opacity:0.30000000000000004"></polygon><polygon points="451.11 376 441.03 366.74 436.74 366.28 430.52 369.64 429.56 372.72 426.72 375.37 425.51 379.06 431.35 381.47 431.95 382.35 435.89 384.08 437.63 386.48 442.66 386.4 444.67 384.31 450.38 383.39 454.55 381.64 454.24 379.06 453.1 376.53 451.11 376" style="fill:#e0e0e0"></polygon><polygon points="451.11 376 453.1 376.53 454.24 379.06 449.83 381.13 441.66 382.26 439.99 381.85 438.29 377.11 440.68 381.13 449.29 380.01 452.44 378.55 452.59 376.81 451.11 376" style="opacity:0.1"></polygon><polygon points="446.94 372.17 448.53 375.8 444.22 375.68 438.89 377.26 444.1 374.25 446.52 374.86 446.49 373.3 444.62 370.04 446.94 372.17" style="opacity:0.1"></polygon><polygon points="446.21 378.32 443.75 377.71 444.22 375.68 448.53 375.8 446.21 378.32" style="opacity:0.30000000000000004"></polygon><polygon points="440.09 380.13 443.75 377.71 444.22 375.68 438.89 377.26 440.09 380.13" style="opacity:0.4"></polygon><polygon points="441.03 366.74 440.49 370.81 438.35 372.82 436.45 370.16 436.74 366.28 441.03 366.74" style="opacity:0.2"></polygon><polygon points="437.49 373.88 435.45 370.36 436.74 366.28 436.45 370.16 438.35 372.82 437.49 373.88" style="opacity:0.1"></polygon><polygon points="438.29 377.11 437.49 373.88 435.45 370.36 436.74 366.28 430.52 369.64 432.58 372.15 436.34 373.85 438.29 377.11" style="opacity:0.30000000000000004"></polygon><polygon points="437.63 386.48 439.99 381.85 438.29 377.11 436.34 373.85 432.58 372.15 430.52 369.64 429.56 372.72 432.43 372.39 435.45 374.57 436.95 377.03 437.63 386.48" style="opacity:0.4"></polygon><polygon points="435.89 384.08 437.22 380.74 437.63 386.48 435.89 384.08" style="opacity:0.30000000000000004"></polygon><polygon points="431.95 382.35 431.81 379.24 430.61 374.25 426.63 379.52 431.35 381.47 431.95 382.35" style="opacity:0.4"></polygon><polygon points="432.43 372.39 430.61 374.25 426.63 379.52 425.51 379.06 426.72 375.37 429.56 372.72 432.43 372.39" style="opacity:0.30000000000000004"></polygon><polygon points="435.89 384.08 431.95 382.35 431.81 379.24 430.61 374.25 432.43 372.39 435.45 374.57 436.95 377.03 437.22 380.74 435.89 384.08" style="opacity:0.2"></polygon><polygon points="441.66 382.26 442.66 386.4 437.63 386.48 439.99 381.85 441.66 382.26" style="opacity:0.30000000000000004"></polygon><polygon points="444.67 384.31 443.45 382.01 441.66 382.26 442.66 386.4 444.67 384.31" style="opacity:0.4"></polygon><polygon points="448.23 383.73 447.22 381.49 443.45 382.01 444.67 384.31 448.23 383.73" style="opacity:0.30000000000000004"></polygon><polygon points="450.38 383.39 449.83 381.13 447.22 381.49 448.23 383.73 450.38 383.39" style="opacity:0.4"></polygon><polygon points="454.24 379.06 449.83 381.13 450.38 383.39 454.55 381.64 454.24 379.06" style="opacity:0.30000000000000004"></polygon><polygon points="446.49 373.3 446.52 374.86 444.1 374.25 438.89 377.26 440.09 380.13 438.29 377.11 437.49 373.88 438.35 372.82 440.49 370.81 441.03 366.74 444.62 370.04 446.49 373.3" style="opacity:0.05"></polygon><polygon points="431.83 379.37 424.59 372.72 421.51 372.39 417.04 374.8 416.36 377.02 414.31 378.92 413.45 381.57 417.63 383.3 418.07 383.93 420.9 385.18 422.15 386.9 425.76 386.85 427.21 385.34 431.31 384.68 434.31 383.42 434.09 381.57 433.26 379.75 431.83 379.37" style="fill:#e0e0e0"></polygon><polygon points="431.83 379.37 433.26 379.75 434.09 381.57 430.92 383.06 425.05 383.87 423.85 383.57 422.62 380.17 424.34 383.06 430.52 382.25 432.79 381.2 432.89 379.95 431.83 379.37" style="opacity:0.1"></polygon><polygon points="428.84 376.62 429.98 379.23 426.89 379.14 423.05 380.28 426.8 378.12 428.54 378.55 428.52 377.43 427.18 375.09 428.84 376.62" style="opacity:0.1"></polygon><polygon points="428.31 381.04 426.54 380.6 426.89 379.14 429.98 379.23 428.31 381.04" style="opacity:0.30000000000000004"></polygon><polygon points="423.92 382.34 426.54 380.6 426.89 379.14 423.05 380.28 423.92 382.34" style="opacity:0.4"></polygon><polygon points="424.59 372.72 424.21 375.64 422.66 377.09 421.3 375.18 421.51 372.39 424.59 372.72" style="opacity:0.2"></polygon><polygon points="422.05 377.85 420.59 375.32 421.51 372.39 421.3 375.18 422.66 377.09 422.05 377.85" style="opacity:0.1"></polygon><polygon points="422.62 380.17 422.05 377.85 420.59 375.32 421.51 372.39 417.04 374.8 418.52 376.61 421.22 377.83 422.62 380.17" style="opacity:0.30000000000000004"></polygon><polygon points="422.15 386.9 423.85 383.57 422.62 380.17 421.22 377.83 418.52 376.61 417.04 374.8 416.36 377.02 418.42 376.78 420.59 378.35 421.66 380.12 422.15 386.9" style="opacity:0.4"></polygon><polygon points="420.9 385.18 421.85 382.77 422.15 386.9 420.9 385.18" style="opacity:0.30000000000000004"></polygon><polygon points="418.07 383.93 417.97 381.7 417.11 378.12 414.25 381.9 417.63 383.3 418.07 383.93" style="opacity:0.4"></polygon><polygon points="418.42 376.78 417.11 378.12 414.25 381.9 413.45 381.57 414.31 378.92 416.36 377.02 418.42 376.78" style="opacity:0.30000000000000004"></polygon><polygon points="420.9 385.18 418.07 383.93 417.97 381.7 417.11 378.12 418.42 376.78 420.59 378.35 421.66 380.12 421.85 382.77 420.9 385.18" style="opacity:0.2"></polygon><polygon points="425.05 383.87 425.76 386.85 422.15 386.9 423.85 383.57 425.05 383.87" style="opacity:0.30000000000000004"></polygon><polygon points="427.21 385.34 426.33 383.69 425.05 383.87 425.76 386.85 427.21 385.34" style="opacity:0.4"></polygon><polygon points="429.77 384.93 429.04 383.32 426.33 383.69 427.21 385.34 429.77 384.93" style="opacity:0.30000000000000004"></polygon><polygon points="431.31 384.68 430.92 383.06 429.04 383.32 429.77 384.93 431.31 384.68" style="opacity:0.4"></polygon><polygon points="434.09 381.57 430.92 383.06 431.31 384.68 434.31 383.42 434.09 381.57" style="opacity:0.30000000000000004"></polygon><polygon points="428.52 377.43 428.54 378.55 426.8 378.12 423.05 380.28 423.92 382.34 422.62 380.17 422.05 377.85 422.66 377.09 424.21 375.64 424.59 372.72 427.18 375.09 428.52 377.43" style="opacity:0.05"></polygon><polygon points="414.31 378.92 416.36 377.02 417.04 374.8 421.51 372.39 424.59 372.72 427.1 375.02 429.56 372.72 430.52 369.64 436.74 366.28 441.03 366.74 444.62 370.04 446.94 372.17 446.94 372.17 451.11 376 453.1 376.53 454.24 379.06 454.55 381.64 450.38 383.39 444.67 384.31 442.66 386.4 437.63 386.48 435.89 384.08 434.3 383.38 434.31 383.42 431.31 384.68 427.21 385.34 425.76 386.85 422.15 386.9 420.9 385.18 418.07 383.93 417.63 383.3 413.45 381.57 414.31 378.92" style="fill:#fff;opacity:0.30000000000000004"></polygon></g><g id="freepik--Wall--inject-59"><path d="M115.48,23.43l-17.22,10-.69,241.74,286,165.1,17.22-10,.68-241.74Zm82.1,118.07-1.38-1.35-.28-.83Zm109,194-6.32,3.67v0L297.78,335l-23.29-1.94L263.8,311.54l-10.75-.45-7.13-13.9-13.29-14.32-17.22,10-.83,1.77-4.48-2.59-3.55-11.64-16.08-15.24,0-10.33-4-5.91,4.6,1.34,17.22-10-5.14-30.86L196,207.18l-1-5.76,15.43-9,.05-19.5-14.31-8.26-.78-1.74,15.14-8.8L201.17,145l15.47-6.86,8.93,9.83,14-8.14,8.87,5.55,7.52,31,12.53-1.87L283.36,198l-5.6,12.78L302,223.26l-3.88,2.15-17.22,10,12.49,19.14,8.94,5.16,1.43,9.47-7.44,4.32,8.75,15.2-4.62,4.45,9.09,16.26-10.95,6.36Z" style="fill:#607D8B"></path><path d="M115.48,23.43l-17.22,10-.69,241.74,286,165.1,17.22-10,.68-241.74Zm82.1,118.07-1.38-1.35-.28-.83Zm109,194-6.32,3.67v0L297.78,335l-23.29-1.94L263.8,311.54l-10.75-.45-7.13-13.9-13.29-14.32-17.22,10-.83,1.77-4.48-2.59-3.55-11.64-16.08-15.24,0-10.33-4-5.91,4.6,1.34,17.22-10-5.14-30.86L196,207.18l-1-5.76,15.43-9,.05-19.5-14.31-8.26-.78-1.74,15.14-8.8L201.17,145l15.47-6.86,8.93,9.83,14-8.14,8.87,5.55,7.52,31,12.53-1.87L283.36,198l-5.6,12.78L302,223.26l-3.88,2.15-17.22,10,12.49,19.14,8.94,5.16,1.43,9.47-7.44,4.32,8.75,15.2-4.62,4.45,9.09,16.26-10.95,6.36Z" style="opacity:0.1"></path><polygon points="190.5 254.84 173.28 264.84 173.25 275.18 190.47 265.17 190.5 254.84" style="opacity:0.2"></polygon><polygon points="186.49 248.93 183.33 248.01 167.93 256.96 173.28 264.84 190.5 254.84 186.49 248.93" style="opacity:0.30000000000000004"></polygon><polygon points="206.55 280.41 189.34 290.42 192.88 302.06 210.1 292.05 206.55 280.41" style="opacity:0.2"></polygon><polygon points="190.47 265.17 173.25 275.18 189.34 290.42 206.55 280.41 190.47 265.17" style="opacity:0.30000000000000004"></polygon><polygon points="167.97 243.55 167.93 256.96 183.33 248.01 167.97 243.55" style="opacity:0.4"></polygon><polygon points="192.88 302.06 207.2 310.32 214.58 294.64 210.1 292.05 192.88 302.06" style="opacity:0.1"></polygon><polygon points="232.63 282.87 215.41 292.87 228.71 307.19 245.92 297.19 232.63 282.87" style="opacity:0.1"></polygon><polygon points="245.92 297.19 228.71 307.19 235.83 321.1 253.05 311.09 245.92 297.19" style="opacity:0.2"></polygon><polygon points="196.01 207.18 178.79 217.19 185.95 219.4 203.17 209.4 196.01 207.18" style="opacity:0.30000000000000004"></polygon><polygon points="203.17 209.4 185.95 219.4 191.09 250.27 208.31 240.26 203.17 209.4" style="opacity:0.2"></polygon><polygon points="263.8 311.54 246.58 321.55 257.27 343.07 274.49 333.06 263.8 311.54" style="opacity:0.2"></polygon><polygon points="253.05 311.09 235.83 321.1 246.58 321.55 263.8 311.54 253.05 311.09" style="opacity:0.1"></polygon><polygon points="194.96 201.43 193.17 202.47 175.27 197.89 178.79 217.19 196.01 207.18 194.96 201.43" style="opacity:0.4"></polygon><polygon points="195.35 162.96 193.28 164.16 173.57 162.76 178.91 174.71 196.13 164.7 195.35 162.96" style="opacity:0.4"></polygon><polygon points="274.49 333.06 257.27 343.07 280.56 345 297.78 335 274.49 333.06" style="opacity:0.1"></polygon><polygon points="300.29 339.15 297.78 335 280.56 345 285.91 353.85 301.15 344.99 300.29 339.15" style="opacity:0.2"></polygon><polygon points="210.39 192.46 210.44 172.96 193.22 182.97 193.17 202.47 194.96 201.43 210.39 192.46" style="opacity:0.2"></polygon><polygon points="196.13 164.7 178.91 174.71 193.22 182.97 210.44 172.96 196.13 164.7" style="opacity:0.30000000000000004"></polygon><polygon points="195.92 139.32 191.44 133.45 173.65 134.61 178.98 150.16 196.2 140.15 195.92 139.32" style="opacity:0.2"></polygon><polygon points="210.49 154.16 201.17 145.02 200.5 145.32 197.58 141.5 196.2 140.15 178.98 150.16 193.28 164.16 195.35 162.96 210.49 154.16" style="opacity:0.1"></polygon><polygon points="285.91 353.85 301.79 349.39 301.15 344.99 285.91 353.85" style="opacity:0.30000000000000004"></polygon><polygon points="307.46 337.51 306.61 335.45 300.29 339.13 307.46 337.51" style="opacity:0.30000000000000004"></polygon><polygon points="313.58 316.7 309.51 309.42 298.56 315.78 313.58 316.7" style="opacity:0.30000000000000004"></polygon><polygon points="305.07 278.04 303.73 269.19 296.29 273.51 305.07 278.04" style="opacity:0.30000000000000004"></polygon><polygon points="229.2 133.34 225.57 147.99 239.58 139.85 229.2 133.34" style="opacity:0.4"></polygon><polygon points="280.87 235.42 302.4 223.48 301.97 223.26 298.09 225.41 280.87 235.42" style="opacity:0.30000000000000004"></polygon><polygon points="384.22 198.54 383.54 440.28 400.76 430.27 401.44 188.53 384.22 198.54" style="fill:#fff;opacity:0.30000000000000004"></polygon><polygon points="401.44 188.53 115.48 23.43 98.26 33.44 384.22 198.54 401.44 188.53" style="fill:#fff;opacity:0.4"></polygon><g style="opacity:0.2"><polygon points="157.86 170.75 168.83 176.35 157.09 172.22 149.83 163.77 137.33 157.58 130.04 159.25 118.19 148.14 129.41 156.97 136.82 155.81 150.47 162.82 157.86 170.75"></polygon><polygon points="165.68 202.32 178.18 208.95 165.5 203.19 159.82 197.56 153.1 194.96 149.79 191.29 126.24 177.69 116.34 168.89 126.41 176.62 142.22 185.74 142.26 172.55 144.64 164.39 143.19 172.89 143.59 186.33 149.2 189.38 153.19 193.64 160.08 195.96 165.68 202.32"></polygon><polygon points="298.14 177.83 306.43 180.88 297.66 178.96 292.31 171.54 283.08 165.45 277.7 165.49 269.05 158.53 277.14 163.75 282.61 164.21 292.69 170.67 298.14 177.83"></polygon><polygon points="321.83 217.66 329.27 220.55 321.95 218.59 304.56 208.56 302.11 208.44 297.15 204.64 292.94 203.94 283.59 197.39 292.81 203.15 296.97 203.24 302.05 207.4 305.01 207.66 309.15 210.2 309.49 200.64 308.46 193.14 310.18 201.18 310.15 210.92 321.83 217.66"></polygon><polygon points="255.11 356.66 265.9 360.85 255.3 358.02 230.08 343.46 226.52 343.3 219.33 337.79 213.22 336.77 199.66 327.27 213.04 335.62 219.07 335.75 226.44 341.78 230.72 342.16 236.73 345.84 237.22 331.98 235.72 321.1 238.22 332.76 238.18 346.88 255.11 356.66"></polygon><polygon points="161.7 111.86 170.3 118.42 180.22 124.79 171.05 119.72 162.14 112.76 156.55 111.13 157.1 116.36 156.22 119.9 156.7 124.65 169.07 130.21 174.02 134.65 168.83 130.84 156.72 125.64 155.74 124.59 152.53 124.2 148.58 121.65 146.89 118.93 136.43 111.14 147.29 118.35 149.23 121.13 152.37 123.23 155.57 123.71 155.58 119.31 156.24 115.64 155.61 110.16 161.7 111.86"></polygon><polygon points="344.43 338.43 357 348.02 371.51 357.34 358.1 349.92 345.07 339.75 336.89 337.36 337.69 345.01 336.42 350.19 337.11 357.14 355.2 365.27 362.45 371.77 354.86 366.2 337.15 358.59 335.7 357.04 331.01 356.47 325.23 352.74 322.76 348.77 307.46 337.38 323.34 347.92 326.18 351.99 330.77 355.06 335.45 355.76 335.47 349.32 336.43 343.96 335.51 335.92 344.43 338.43"></polygon><polygon points="137.15 232.89 140.03 233.78 135.14 224.5 126.4 211 112.19 199.43 126.99 210.52 135.81 224.27 140.92 233.76 146.18 234.18 157.72 237.47 167.93 243.37 157.81 238.63 146.42 234.97 141.67 234.84 145.27 241.9 145.5 246.02 152.04 259.21 144.89 246.09 144.43 241.64 140.54 234.77 137.93 234.32 137.15 232.89"></polygon><polygon points="359.25 272.24 345.06 267.69 339.14 267.52 343.62 276.31 343.91 281.45 352.06 297.89 343.16 281.53 342.58 276 337.74 267.44 333.66 266.74 325.13 261.47 335.92 275.64 337.56 275.22 340.49 276.65 338.18 276.17 336.31 276.8 341.52 281.09 335.8 277.37 323.39 260.44 318.19 253.84 306.22 244.88 318.65 253.25 324.07 259.63 333.51 265.09 337.09 266.2 331.01 254.64 320.11 237.81 302.4 223.4 320.85 237.22 331.84 254.35 338.21 266.17 344.77 266.7 359.14 270.8 371.87 278.15 359.25 272.24"></polygon></g><g style="opacity:0.1"><path d="M354.37,382.26c-.54-.31-1-.06-1,.56l0,6a2.18,2.18,0,0,0,1,1.7l15.9,9.17c.53.31,1,.07,1-.56l0-6a2.16,2.16,0,0,0-1-1.69Z"></path><path d="M354.37,403c-.54-.31-1-.07-1,.56l0,6a2.16,2.16,0,0,0,1,1.69l15.9,9.18c.53.31,1,.06,1-.56l0-6a2.18,2.18,0,0,0-1-1.7Z"></path><path d="M343.81,386.4c-.54-.31-1-.06-1,.56v6a2.16,2.16,0,0,0,1,1.69l15.89,9.18c.54.31,1,.06,1-.56v-6a2.16,2.16,0,0,0-1-1.69Z"></path><g style="opacity:0.07"><path d="M354.37,382.26c-.54-.31-1-.06-1,.56l0,6a2.18,2.18,0,0,0,1,1.7l15.9,9.17c.53.31,1,.07,1-.56l0-6a2.16,2.16,0,0,0-1-1.69Z"></path><path d="M354.37,403c-.54-.31-1-.07-1,.56l0,6a2.16,2.16,0,0,0,1,1.69l15.9,9.18c.53.31,1,.06,1-.56l0-6a2.18,2.18,0,0,0-1-1.7Z"></path><path d="M343.81,386.4c-.54-.31-1-.06-1,.56v6a2.16,2.16,0,0,0,1,1.69l15.89,9.18c.54.31,1,.06,1-.56v-6a2.16,2.16,0,0,0-1-1.69Z"></path></g></g><g style="opacity:0.1"><path d="M125.29,231.44c-.54-.31-1-.07-1,.56l0,6a2.16,2.16,0,0,0,1,1.69l15.89,9.18c.54.31,1,.06,1-.56v-6a2.13,2.13,0,0,0-1-1.69Z"></path><path d="M125.29,252.15c-.54-.32-1-.07-1,.56l0,6a2.16,2.16,0,0,0,1,1.69l15.89,9.18c.54.31,1,.06,1-.56v-6a2.14,2.14,0,0,0-1-1.7Z"></path><path d="M114.73,235.58c-.54-.31-1-.07-1,.56l0,6a2.16,2.16,0,0,0,1,1.69L130.6,253c.54.31,1,.06,1-.56l0-6a2.18,2.18,0,0,0-1-1.7Z"></path><g style="opacity:0.07"><path d="M125.29,231.44c-.54-.31-1-.07-1,.56l0,6a2.16,2.16,0,0,0,1,1.69l15.89,9.18c.54.31,1,.06,1-.56v-6a2.13,2.13,0,0,0-1-1.69Z"></path><path d="M125.29,252.15c-.54-.32-1-.07-1,.56l0,6a2.16,2.16,0,0,0,1,1.69l15.89,9.18c.54.31,1,.06,1-.56v-6a2.14,2.14,0,0,0-1-1.7Z"></path><path d="M114.73,235.58c-.54-.31-1-.07-1,.56l0,6a2.16,2.16,0,0,0,1,1.69L130.6,253c.54.31,1,.06,1-.56l0-6a2.18,2.18,0,0,0-1-1.7Z"></path></g></g><g style="opacity:0.1"><path d="M104.58,241.79c-.54-.31-1-.06-1,.56l0,6a2.16,2.16,0,0,0,1,1.7l15.89,9.17c.54.32,1,.07,1-.56l0-6a2.16,2.16,0,0,0-1-1.69Z"></path><path d="M104.58,262.5c-.54-.31-1-.06-1,.56l0,6a2.18,2.18,0,0,0,1,1.7L120.45,280c.54.31,1,.07,1-.56l0-6a2.16,2.16,0,0,0-1-1.69Z"></path><g style="opacity:0.07"><path d="M104.58,241.79c-.54-.31-1-.06-1,.56l0,6a2.16,2.16,0,0,0,1,1.7l15.89,9.17c.54.32,1,.07,1-.56l0-6a2.16,2.16,0,0,0-1-1.69Z"></path><path d="M104.58,262.5c-.54-.31-1-.06-1,.56l0,6a2.18,2.18,0,0,0,1,1.7L120.45,280c.54.31,1,.07,1-.56l0-6a2.16,2.16,0,0,0-1-1.69Z"></path></g></g><g style="opacity:0.1"><path d="M122,179.4c-.54-.31-1-.06-1,.56v6a2.15,2.15,0,0,0,1,1.7l15.9,9.18c.54.31,1,.06,1-.57l0-6a2.16,2.16,0,0,0-1-1.7Z"></path><path d="M111.46,183.54c-.54-.31-1-.06-1,.56l0,6a2.16,2.16,0,0,0,1,1.7L127.33,201c.54.32,1,.07,1-.56l0-6a2.16,2.16,0,0,0-1-1.69Z"></path><g style="opacity:0.07"><path d="M122,179.4c-.54-.31-1-.06-1,.56v6a2.15,2.15,0,0,0,1,1.7l15.9,9.18c.54.31,1,.06,1-.57l0-6a2.16,2.16,0,0,0-1-1.7Z"></path><path d="M111.46,183.54c-.54-.31-1-.06-1,.56l0,6a2.16,2.16,0,0,0,1,1.7L127.33,201c.54.32,1,.07,1-.56l0-6a2.16,2.16,0,0,0-1-1.69Z"></path></g></g><g style="opacity:0.1"><path d="M115.33,65.13c-.54-.31-1-.06-1,.57l0,6a2.16,2.16,0,0,0,1,1.7l15.9,9.18c.54.31,1,.06,1-.57l0-6a2.16,2.16,0,0,0-1-1.7Z"></path><path d="M115.33,85.84c-.54-.31-1-.06-1,.56l0,6a2.16,2.16,0,0,0,1,1.7l15.9,9.17c.54.31,1,.07,1-.56l0-6a2.16,2.16,0,0,0-1-1.69Z"></path><path d="M124.76,81c-.54-.32-1-.07-1,.56l0,6a2.16,2.16,0,0,0,1,1.69l15.89,9.18c.54.31,1,.06,1-.56l0-6a2.16,2.16,0,0,0-1-1.7Z"></path><path d="M104.76,69.27c-.54-.31-1-.06-1,.56l0,6a2.16,2.16,0,0,0,1,1.7l15.89,9.17c.54.32,1,.07,1-.56l0-6a2.16,2.16,0,0,0-1-1.69Z"></path><g style="opacity:0.07"><path d="M115.33,65.13c-.54-.31-1-.06-1,.57l0,6a2.16,2.16,0,0,0,1,1.7l15.9,9.18c.54.31,1,.06,1-.57l0-6a2.16,2.16,0,0,0-1-1.7Z"></path><path d="M115.33,85.84c-.54-.31-1-.06-1,.56l0,6a2.16,2.16,0,0,0,1,1.7l15.9,9.17c.54.31,1,.07,1-.56l0-6a2.16,2.16,0,0,0-1-1.69Z"></path><path d="M124.76,81c-.54-.32-1-.07-1,.56l0,6a2.16,2.16,0,0,0,1,1.69l15.89,9.18c.54.31,1,.06,1-.56l0-6a2.16,2.16,0,0,0-1-1.7Z"></path><path d="M104.76,69.27c-.54-.31-1-.06-1,.56l0,6a2.16,2.16,0,0,0,1,1.7l15.89,9.17c.54.32,1,.07,1-.56l0-6a2.16,2.16,0,0,0-1-1.69Z"></path></g></g><g style="opacity:0.1"><path d="M145.76,72.46c-.54-.31-1-.06-1,.56l0,6a2.18,2.18,0,0,0,1,1.7l15.89,9.17c.54.31,1,.07,1-.56l0-6a2.16,2.16,0,0,0-1-1.69Z"></path><path d="M145.76,93.17c-.54-.31-1-.07-1,.56l0,6a2.16,2.16,0,0,0,1,1.69l15.89,9.18c.54.31,1,.06,1-.56l0-6a2.18,2.18,0,0,0-1-1.7Z"></path><path d="M155.2,88.28c-.54-.31-1-.06-1,.56v6a2.14,2.14,0,0,0,1,1.7l15.89,9.18c.54.31,1,.06,1-.57l0-6a2.16,2.16,0,0,0-1-1.7Z"></path><path d="M135.2,76.6c-.54-.31-1-.06-1,.56v6a2.15,2.15,0,0,0,1,1.69l15.9,9.18c.54.31,1,.07,1-.56l0-6a2.16,2.16,0,0,0-1-1.69Z"></path><g style="opacity:0.07"><path d="M145.76,72.46c-.54-.31-1-.06-1,.56l0,6a2.18,2.18,0,0,0,1,1.7l15.89,9.17c.54.31,1,.07,1-.56l0-6a2.16,2.16,0,0,0-1-1.69Z"></path><path d="M145.76,93.17c-.54-.31-1-.07-1,.56l0,6a2.16,2.16,0,0,0,1,1.69l15.89,9.18c.54.31,1,.06,1-.56l0-6a2.18,2.18,0,0,0-1-1.7Z"></path><path d="M155.2,88.28c-.54-.31-1-.06-1,.56v6a2.14,2.14,0,0,0,1,1.7l15.89,9.18c.54.31,1,.06,1-.57l0-6a2.16,2.16,0,0,0-1-1.7Z"></path><path d="M135.2,76.6c-.54-.31-1-.06-1,.56v6a2.15,2.15,0,0,0,1,1.69l15.9,9.18c.54.31,1,.07,1-.56l0-6a2.16,2.16,0,0,0-1-1.69Z"></path></g></g><g style="opacity:0.1"><path d="M329.34,291.57c-.54-.31-1-.06-1,.56l0,6a2.16,2.16,0,0,0,1,1.7L345.21,309c.54.32,1,.07,1-.56l0-6a2.16,2.16,0,0,0-1-1.69Z"></path><path d="M329.34,312.28c-.54-.31-1-.06-1,.56l0,6a2.18,2.18,0,0,0,1,1.7l15.89,9.17c.54.31,1,.07,1-.56l0-6a2.16,2.16,0,0,0-1-1.69Z"></path><path d="M338.78,307.39c-.54-.31-1-.06-1,.57v6a2.14,2.14,0,0,0,1,1.7l15.89,9.18c.54.31,1,.06,1-.56l0-6a2.16,2.16,0,0,0-1-1.7Z"></path><path d="M318.78,295.71c-.54-.31-1-.06-1,.56v6a2.17,2.17,0,0,0,1,1.7l15.9,9.17c.54.31,1,.07,1-.56l0-6a2.16,2.16,0,0,0-1-1.69Z"></path><g style="opacity:0.07"><path d="M329.34,291.57c-.54-.31-1-.06-1,.56l0,6a2.16,2.16,0,0,0,1,1.7L345.21,309c.54.32,1,.07,1-.56l0-6a2.16,2.16,0,0,0-1-1.69Z"></path><path d="M329.34,312.28c-.54-.31-1-.06-1,.56l0,6a2.18,2.18,0,0,0,1,1.7l15.89,9.17c.54.31,1,.07,1-.56l0-6a2.16,2.16,0,0,0-1-1.69Z"></path><path d="M338.78,307.39c-.54-.31-1-.06-1,.57v6a2.14,2.14,0,0,0,1,1.7l15.89,9.18c.54.31,1,.06,1-.56l0-6a2.16,2.16,0,0,0-1-1.7Z"></path><path d="M318.78,295.71c-.54-.31-1-.06-1,.56v6a2.17,2.17,0,0,0,1,1.7l15.9,9.17c.54.31,1,.07,1-.56l0-6a2.16,2.16,0,0,0-1-1.69Z"></path></g></g><g style="opacity:0.1"><path d="M340.77,188.19c-.54-.31-1-.07-1,.56l0,6a2.16,2.16,0,0,0,1,1.69l15.89,9.18c.54.31,1,.06,1-.56v-6a2.14,2.14,0,0,0-1-1.7Z"></path><path d="M330.21,192.33c-.54-.32-1-.07-1,.56l0,6a2.16,2.16,0,0,0,1,1.69l15.9,9.18c.54.31,1,.06,1-.56l0-6a2.16,2.16,0,0,0-1-1.7Z"></path><g style="opacity:0.07"><path d="M340.77,188.19c-.54-.31-1-.07-1,.56l0,6a2.16,2.16,0,0,0,1,1.69l15.89,9.18c.54.31,1,.06,1-.56v-6a2.14,2.14,0,0,0-1-1.7Z"></path><path d="M330.21,192.33c-.54-.32-1-.07-1,.56l0,6a2.16,2.16,0,0,0,1,1.69l15.9,9.18c.54.31,1,.06,1-.56l0-6a2.16,2.16,0,0,0-1-1.7Z"></path></g></g><g style="opacity:0.1"><path d="M310.41,352.7c-.54-.31-1-.06-1,.56l0,6a2.16,2.16,0,0,0,1,1.7l15.9,9.18c.54.31,1,.06,1-.57l0-6a2.16,2.16,0,0,0-1-1.7Z"></path><path d="M310.41,373.41c-.54-.31-1-.06-1,.56l0,6a2.18,2.18,0,0,0,1,1.7l15.9,9.17c.54.31,1,.07,1-.56l0-6a2.16,2.16,0,0,0-1-1.69Z"></path><path d="M319.84,368.53c-.54-.32-1-.07-1,.56l0,6a2.16,2.16,0,0,0,1,1.69L335.71,386c.54.31,1,.06,1-.56v-6a2.14,2.14,0,0,0-1-1.7Z"></path><path d="M299.84,356.84c-.54-.31-1-.06-1,.56v6a2.16,2.16,0,0,0,1,1.7l15.89,9.17c.54.32,1,.07,1-.56v-6a2.16,2.16,0,0,0-1-1.69Z"></path><g style="opacity:0.07"><path d="M310.41,352.7c-.54-.31-1-.06-1,.56l0,6a2.16,2.16,0,0,0,1,1.7l15.9,9.18c.54.31,1,.06,1-.57l0-6a2.16,2.16,0,0,0-1-1.7Z"></path><path d="M310.41,373.41c-.54-.31-1-.06-1,.56l0,6a2.18,2.18,0,0,0,1,1.7l15.9,9.17c.54.31,1,.07,1-.56l0-6a2.16,2.16,0,0,0-1-1.69Z"></path><path d="M319.84,368.53c-.54-.32-1-.07-1,.56l0,6a2.16,2.16,0,0,0,1,1.69L335.71,386c.54.31,1,.06,1-.56v-6a2.14,2.14,0,0,0-1-1.7Z"></path><path d="M299.84,356.84c-.54-.31-1-.06-1,.56v6a2.16,2.16,0,0,0,1,1.7l15.89,9.17c.54.32,1,.07,1-.56v-6a2.16,2.16,0,0,0-1-1.69Z"></path></g></g><g style="opacity:0.1"><path d="M356.65,212.76c-.54-.31-1-.06-1,.56l0,6a2.16,2.16,0,0,0,1,1.69l15.89,9.18c.54.31,1,.06,1-.56l0-6a2.16,2.16,0,0,0-1-1.69Z"></path><path d="M356.65,233.47c-.54-.31-1-.07-1,.56l0,6a2.16,2.16,0,0,0,1,1.69l15.89,9.18c.54.31,1,.06,1-.56l0-6a2.16,2.16,0,0,0-1-1.7Z"></path><path d="M346.09,216.9c-.54-.31-1-.07-1,.56v6a2.13,2.13,0,0,0,1,1.69L362,234.36c.54.31,1,.06,1-.56l0-6a2.18,2.18,0,0,0-1-1.7Z"></path><g style="opacity:0.07"><path d="M356.65,212.76c-.54-.31-1-.06-1,.56l0,6a2.16,2.16,0,0,0,1,1.69l15.89,9.18c.54.31,1,.06,1-.56l0-6a2.16,2.16,0,0,0-1-1.69Z"></path><path d="M356.65,233.47c-.54-.31-1-.07-1,.56l0,6a2.16,2.16,0,0,0,1,1.69l15.89,9.18c.54.31,1,.06,1-.56l0-6a2.16,2.16,0,0,0-1-1.7Z"></path><path d="M346.09,216.9c-.54-.31-1-.07-1,.56v6a2.13,2.13,0,0,0,1,1.69L362,234.36c.54.31,1,.06,1-.56l0-6a2.18,2.18,0,0,0-1-1.7Z"></path></g></g><polygon points="91.05 275.68 102.28 269.15 102.3 263.45 98.7 260.46 87.47 266.98 84.28 269.51 87.45 275.4 91.05 275.68" style="fill:#607D8B"></polygon><polygon points="102.3 263.45 98.7 260.46 87.47 266.98 91.07 269.97 102.3 263.45" style="fill:#fff;opacity:0.30000000000000004"></polygon><polygon points="91.05 275.68 102.28 269.15 102.3 263.45 91.07 269.97 91.05 275.68" style="fill:#fff;opacity:0.2"></polygon><polygon points="183.41 152.51 190.21 151.93 201.43 145.4 193.41 130.35 184.5 127.79 173.28 134.32 183.41 152.51" style="fill:#607D8B"></polygon><polygon points="190.21 151.93 201.43 145.4 193.41 130.35 182.18 136.87 190.21 151.93" style="fill:#fff;opacity:0.30000000000000004"></polygon><polygon points="182.18 136.87 193.41 130.35 184.5 127.79 173.28 134.32 182.18 136.87" style="fill:#fff;opacity:0.4"></polygon><polygon points="100.33 309.73 100.34 307.59 97.95 306.21 95.89 297.44 88.49 296.13 77.26 302.65 75.55 308.42 73.84 311.59 78.9 322.74 82.3 322.53 89.82 325.19 101.05 318.66 100.33 309.73" style="fill:#607D8B"></polygon><polygon points="100.33 309.73 89.11 316.25 89.82 325.19 101.05 318.66 100.33 309.73" style="fill:#fff;opacity:0.4"></polygon><polygon points="89.11 314.12 100.34 307.59 97.95 306.21 86.72 312.73 89.11 314.12" style="fill:#fff;opacity:0.4"></polygon><polygon points="89.11 316.25 100.33 309.73 100.34 307.59 89.11 314.12 89.11 316.25" style="fill:#fff;opacity:0.30000000000000004"></polygon><polygon points="86.72 312.73 97.95 306.21 95.89 297.44 84.67 303.96 86.72 312.73" style="fill:#fff;opacity:0.30000000000000004"></polygon><polygon points="95.89 297.44 88.49 296.13 77.26 302.65 84.67 303.96 95.89 297.44" style="fill:#fff;opacity:0.4"></polygon><polygon points="308.52 440.78 304.4 430.52 298.94 427.36 296.69 423.11 285.46 429.63 282.06 432.88 282.79 440.55 286.56 441.48 290.5 449.01 297.3 447.3 308.52 440.78" style="fill:#607D8B"></polygon><polygon points="298.94 427.36 296.69 423.11 285.46 429.63 287.71 433.88 298.94 427.36" style="fill:#fff;opacity:0.4"></polygon><polygon points="293.18 437.04 304.4 430.52 298.94 427.36 287.71 433.88 293.18 437.04" style="fill:#fff;opacity:0.30000000000000004"></polygon><polygon points="297.3 447.3 308.52 440.78 304.4 430.52 293.18 437.04 297.3 447.3" style="fill:#fff;opacity:0.4"></polygon><polygon points="189.28 298.55 186.56 292.64 183.16 291.42 171.94 297.94 171.92 303.7 175.3 308.04 175.29 313.39 182.07 317.31 193.29 310.78 192.19 301.42 189.28 298.55" style="fill:#607D8B"></polygon><polygon points="178.05 305.07 189.28 298.55 186.56 292.64 175.33 299.17 178.05 305.07" style="fill:#fff;opacity:0.30000000000000004"></polygon><polygon points="186.56 292.64 183.16 291.42 171.94 297.94 175.33 299.17 186.56 292.64" style="fill:#fff;opacity:0.4"></polygon><polygon points="180.96 307.94 192.19 301.42 189.28 298.55 178.05 305.07 180.96 307.94" style="fill:#fff;opacity:0.4"></polygon><polygon points="180.96 307.94 182.07 317.31 193.29 310.78 192.19 301.42 180.96 307.94" style="fill:#fff;opacity:0.30000000000000004"></polygon><polygon points="116.01 217.58 112.23 222.62 118.37 230.04 129.59 223.51 130.99 218.96 127.24 211.06 116.01 217.58" style="fill:#607D8B"></polygon><polygon points="118.37 230.04 129.59 223.51 130.99 218.96 119.77 225.48 118.37 230.04" style="fill:#fff;opacity:0.30000000000000004"></polygon><polygon points="116.01 217.58 119.77 225.48 130.99 218.96 127.24 211.06 116.01 217.58" style="fill:#fff;opacity:0.4"></polygon><polygon points="61.89 327.58 59.29 331.87 51.45 335.14 51.42 343.8 57.76 351.23 66.85 349.72 66.86 346.08 76 344.4 76.03 335.74 75.86 327.48 61.89 327.58" style="fill:#607D8B"></polygon><polygon points="66.52 341.12 66.87 341.06 66.86 346.08 76 344.4 76.03 335.74 66.53 337.49 66.52 341.12" style="fill:#fff;opacity:0.2"></polygon><polygon points="66.52 341.12 57.78 342.57 57.76 351.23 66.85 349.72 66.86 346.08 66.87 341.06 66.52 341.12" style="fill:#fff;opacity:0.30000000000000004"></polygon><polygon points="51.45 335.14 51.42 343.8 57.76 351.23 57.78 342.57 51.45 335.14" style="fill:#fff;opacity:0.2"></polygon><polygon points="217.07 414.3 217.09 405.65 205.97 401.81 205.49 413.87 205.47 422.52 216.13 424.18 217.07 414.3" style="fill:#607D8B"></polygon><polygon points="217.07 414.3 217.09 405.65 216.16 415.52 216.13 424.18 217.07 414.3" style="fill:#fff;opacity:0.30000000000000004"></polygon><polygon points="216.16 415.52 205.49 413.87 205.47 422.52 216.13 424.18 216.16 415.52" style="fill:#fff;opacity:0.2"></polygon><polygon points="136.57 356.99 148.21 358.07 150.87 351.73 150.89 343.07 145.72 340.08 145.73 337.13 137.84 337.79 132.32 341.86 132.3 350.51 136.59 351.88 136.57 356.99" style="fill:#607D8B"></polygon><polygon points="136.59 348.33 137.16 348.38 137.18 343.4 132.32 341.86 132.3 350.51 136.59 351.88 136.59 348.33" style="fill:#fff;opacity:0.2"></polygon><polygon points="150.87 351.73 150.89 343.07 148.24 349.42 148.21 358.07 150.87 351.73" style="fill:#fff;opacity:0.2"></polygon><polygon points="136.59 351.88 136.57 356.99 148.21 358.07 148.24 349.42 137.16 348.38 136.59 348.33 136.59 351.88" style="fill:#fff;opacity:0.30000000000000004"></polygon><polygon points="133.3 409.94 125.1 408.82 122.98 412.99 122.96 421.65 136.89 426.32 144.67 421.8 144.69 413.14 136.06 407.03 133.3 409.94" style="fill:#607D8B"></polygon><polygon points="136.89 426.32 144.67 421.8 144.69 413.14 136.91 417.66 136.89 426.32" style="fill:#fff;opacity:0.30000000000000004"></polygon><polygon points="122.98 412.99 122.96 421.65 136.89 426.32 136.91 417.66 122.98 412.99" style="fill:#fff;opacity:0.2"></polygon><polygon points="230.41 406.65 230.86 402.22 230.88 393.56 229.07 389.7 223.38 390.31 223.09 392.44 219.13 392.78 219.12 396.71 214.75 399.26 214.72 407.92 219.4 409.12 223.05 408.97 230.41 406.65" style="fill:#607D8B"></polygon><polygon points="230.86 402.22 230.88 393.56 230.43 398 230.41 406.65 230.86 402.22" style="fill:#fff;opacity:0.30000000000000004"></polygon><polygon points="230.41 406.65 230.43 398 223.07 400.31 223.05 408.97 230.41 406.65" style="fill:#fff;opacity:0.2"></polygon><polygon points="223.07 400.31 219.43 400.46 219.4 409.12 223.05 408.97 223.07 400.31" style="fill:#fff;opacity:0.30000000000000004"></polygon><polygon points="219.4 400.46 219.11 400.38 214.75 399.26 214.72 407.92 219.4 409.12 219.43 400.46 219.4 400.46" style="fill:#fff;opacity:0.2"></polygon><polygon points="269.66 385.5 256.58 384.81 251.43 387.22 251.41 395.87 254.06 401.35 264.66 398.14 269.64 394.15 269.66 385.5" style="fill:#607D8B"></polygon><polygon points="269.66 385.5 264.69 389.48 264.66 398.14 269.64 394.15 269.66 385.5" style="fill:#fff;opacity:0.30000000000000004"></polygon><polygon points="254.09 392.69 254.06 401.35 264.66 398.14 264.69 389.48 254.09 392.69" style="fill:#fff;opacity:0.2"></polygon><polygon points="251.43 387.22 251.41 395.87 254.06 401.35 254.09 392.69 251.43 387.22" style="fill:#fff;opacity:0.30000000000000004"></polygon><polygon points="288.49 269.34 288.51 260.68 285.7 258.14 278.75 258.5 278.43 262.37 278.4 271.02 283.56 272.2 288.49 269.34" style="fill:#607D8B"></polygon><polygon points="288.49 269.34 288.51 260.68 283.58 263.55 283.56 272.2 288.49 269.34" style="fill:#fff;opacity:0.2"></polygon><polygon points="283.58 263.55 278.43 262.37 278.4 271.02 283.56 272.2 283.58 263.55" style="fill:#fff;opacity:0.30000000000000004"></polygon><polygon points="293.68 319.72 282.59 314.81 277.58 315.67 274.54 328.73 279.66 333.78 282.24 343.09 293.61 341.74 298.62 340.88 298.69 331.5 293.83 329.63 293.68 319.72" style="fill:#607D8B"></polygon><polygon points="282.24 343.09 293.61 341.74 298.62 340.88 287.25 342.23 282.24 343.09" style="fill:#fff;opacity:0.30000000000000004"></polygon><polygon points="284.68 332.92 279.66 333.78 282.24 343.09 287.25 342.23 284.68 332.92" style="fill:#fff;opacity:0.30000000000000004"></polygon><polygon points="279.55 327.88 274.54 328.73 279.66 333.78 284.68 332.92 279.55 327.88" style="fill:#fff;opacity:0.2"></polygon><polygon points="282.59 314.81 277.58 315.67 274.54 328.73 279.55 327.88 282.59 314.81" style="fill:#fff;opacity:0.30000000000000004"></polygon><polygon points="168.34 202.88 167.33 200.5 164.26 201.02 159.28 194.65 154.26 195.5 148.27 203.07 149.77 211.56 150.03 217.14 159.01 223.35 164.02 222.5 166.39 218.13 173.1 211.9 168.34 202.88" style="fill:#607D8B"></polygon><polygon points="153.28 202.22 148.27 203.07 149.77 211.56 154.78 210.7 153.28 202.22" style="fill:#fff;opacity:0.2"></polygon><polygon points="159.28 194.65 154.26 195.5 148.27 203.07 153.28 202.22 159.28 194.65" style="fill:#fff;opacity:0.30000000000000004"></polygon><polygon points="150.03 217.14 159.01 223.35 164.02 222.5 155.04 216.28 150.03 217.14" style="fill:#fff;opacity:0.2"></polygon><polygon points="154.78 210.7 149.77 211.56 150.03 217.14 155.04 216.28 154.78 210.7" style="fill:#fff;opacity:0.30000000000000004"></polygon><polygon points="148.25 257.24 143.24 258.1 136.17 262.18 136.52 270.87 145.13 273.1 150.14 272.25 152.45 267.12 147.8 263.81 148.25 257.24" style="fill:#607D8B"></polygon><polygon points="148.25 257.24 143.24 258.1 136.17 262.18 141.19 261.32 148.25 257.24" style="fill:#fff;opacity:0.2"></polygon><polygon points="136.52 270.87 145.13 273.1 150.14 272.25 141.53 270.02 136.52 270.87" style="fill:#fff;opacity:0.2"></polygon><polygon points="141.19 261.32 136.17 262.18 136.52 270.87 141.53 270.02 141.19 261.32" style="fill:#fff;opacity:0.30000000000000004"></polygon><polygon points="261.87 320.21 266.52 311.29 253.55 304.36 248.53 305.22 240.85 313.23 256.86 321.06 261.87 320.21" style="fill:#607D8B"></polygon><polygon points="261.87 320.21 245.86 312.37 240.85 313.23 256.86 321.06 261.87 320.21" style="fill:#fff;opacity:0.30000000000000004"></polygon><polygon points="253.55 304.36 248.53 305.22 240.85 313.23 245.86 312.37 253.55 304.36" style="fill:#fff;opacity:0.2"></polygon><polygon points="234.14 374.77 239.15 373.92 243.26 363.75 235.39 357.38 230.38 358.24 228.1 359.55 226.28 358.56 221.27 359.42 220.34 367.15 224.52 374.78 229.53 373.93 230.54 372.79 234.14 374.77" style="fill:#607D8B"></polygon><polygon points="228.01 371.17 225.35 366.3 220.34 367.15 224.52 374.78 229.53 373.93 228.2 371.5 228.01 371.17" style="fill:#fff;opacity:0.30000000000000004"></polygon><polygon points="225.96 361.21 226.01 360.76 226.28 358.56 221.27 359.42 220.34 367.15 225.35 366.3 225.96 361.21" style="fill:#fff;opacity:0.2"></polygon><polygon points="154.33 160.26 149.32 161.11 148.74 174.7 153.75 173.84 160.41 171.57 161.35 164.96 154.33 160.26" style="fill:#607D8B"></polygon><polygon points="148.74 174.7 153.75 173.84 154.33 160.26 149.32 161.11 148.74 174.7" style="fill:#fff;opacity:0.2"></polygon><polygon points="263.94 347.64 258.94 348.49 258.36 362.08 263.37 361.23 270.02 358.95 270.96 352.34 263.94 347.64" style="fill:#607D8B"></polygon><polygon points="258.36 362.08 263.37 361.23 263.94 347.64 258.94 348.49 258.36 362.08" style="fill:#fff;opacity:0.2"></polygon><polygon points="165.32 372.72 155.18 377.02 158.44 381.36 155.06 388.3 160.16 392.84 165.17 391.99 174.59 381.87 170.33 371.86 165.32 372.72" style="fill:#607D8B"></polygon><polygon points="165.32 372.72 155.18 377.02 160.19 376.16 170.33 371.86 165.32 372.72" style="fill:#fff;opacity:0.30000000000000004"></polygon><polygon points="158.44 381.36 163.46 380.51 160.19 376.16 155.18 377.02 158.44 381.36" style="fill:#fff;opacity:0.2"></polygon><polygon points="160.16 392.84 165.17 391.99 160.07 387.45 155.06 388.3 160.16 392.84" style="fill:#fff;opacity:0.2"></polygon><polygon points="155.06 388.3 160.07 387.45 163.46 380.51 158.44 381.36 155.06 388.3" style="fill:#fff;opacity:0.30000000000000004"></polygon><polygon points="295.23 385.59 290.44 382.35 285.44 383.2 282.39 385.99 285.12 392.39 289.63 393.07 292.17 399.04 297.18 398.18 303.96 394.27 298.71 385.23 295.23 385.59" style="fill:#607D8B"></polygon><polygon points="289.63 393.07 292.17 399.04 297.18 398.18 294.64 392.22 289.63 393.07" style="fill:#fff;opacity:0.2"></polygon><polygon points="290.13 391.54 285.12 392.39 289.63 393.07 294.64 392.22 290.13 391.54" style="fill:#fff;opacity:0.30000000000000004"></polygon><polygon points="287.41 385.13 282.39 385.99 285.12 392.39 290.13 391.54 287.41 385.13" style="fill:#fff;opacity:0.2"></polygon><polygon points="290.44 382.35 285.44 383.2 282.39 385.99 287.41 385.13 290.44 382.35" style="fill:#fff;opacity:0.30000000000000004"></polygon><polygon points="133.04 133.06 128.26 129.82 123.25 130.67 120.21 133.45 122.94 139.86 127.45 140.54 129.99 146.5 135 145.65 141.78 141.74 136.52 132.7 133.04 133.06" style="fill:#607D8B"></polygon><polygon points="127.45 140.54 129.99 146.5 135 145.65 132.46 139.69 127.45 140.54" style="fill:#fff;opacity:0.2"></polygon><polygon points="127.95 139 122.94 139.86 127.45 140.54 132.46 139.69 127.95 139" style="fill:#fff;opacity:0.30000000000000004"></polygon><polygon points="125.22 132.6 120.21 133.45 122.94 139.86 127.95 139 125.22 132.6" style="fill:#fff;opacity:0.2"></polygon><polygon points="128.26 129.82 123.25 130.67 120.21 133.45 125.22 132.6 128.26 129.82" style="fill:#fff;opacity:0.30000000000000004"></polygon><polygon points="179.09 234.05 174.07 234.91 173.72 245.1 181.7 245.84 186.71 244.99 185.56 238.25 179.09 234.05" style="fill:#607D8B"></polygon><polygon points="173.72 245.1 181.7 245.84 186.71 244.99 178.74 244.25 173.72 245.1" style="fill:#fff;opacity:0.2"></polygon><polygon points="179.09 234.05 174.07 234.91 173.72 245.1 178.74 244.25 179.09 234.05" style="fill:#fff;opacity:0.30000000000000004"></polygon><polygon points="150.68 318.27 153.23 324.28 158.24 323.43 160.92 319.8 161.56 316.32 160.15 308.06 154.32 304.91 148.75 304.24 143.74 305.1 143.26 310.77 146.04 312.34 145.58 316.22 150.68 318.27" style="fill:#607D8B"></polygon><polygon points="153.23 324.28 158.24 323.43 155.69 317.42 150.68 318.27 153.23 324.28" style="fill:#fff;opacity:0.30000000000000004"></polygon><polygon points="150.68 318.27 155.69 317.42 150.59 315.37 145.58 316.22 150.68 318.27" style="fill:#fff;opacity:0.2"></polygon><polygon points="150.59 315.37 151.05 311.49 146.04 312.34 145.58 316.22 150.59 315.37" style="fill:#fff;opacity:0.30000000000000004"></polygon><polygon points="148.27 309.92 143.26 310.77 146.04 312.34 151.05 311.49 148.27 309.92" style="fill:#fff;opacity:0.2"></polygon><polygon points="148.75 304.24 143.74 305.1 143.26 310.77 148.27 309.92 148.75 304.24" style="fill:#fff;opacity:0.30000000000000004"></polygon><polygon points="270.46 203.87 275.47 203.01 273.62 191.19 269.43 184.11 264.42 184.97 260.5 196.72 262.54 202.98 270.46 203.87" style="fill:#607D8B"></polygon><polygon points="270.46 203.87 275.47 203.01 267.55 202.12 262.54 202.98 270.46 203.87" style="fill:#fff;opacity:0.2"></polygon><polygon points="267.55 202.12 265.51 195.86 260.5 196.72 262.54 202.98 267.55 202.12" style="fill:#fff;opacity:0.30000000000000004"></polygon><polygon points="269.43 184.11 264.42 184.97 260.5 196.72 265.51 195.86 269.43 184.11" style="fill:#fff;opacity:0.2"></polygon><polygon points="253.53 167.03 256.28 162.95 253.58 156.61 248.57 157.46 244.54 158.54 243.42 165.22 248.52 167.89 253.53 167.03" style="fill:#607D8B"></polygon><polygon points="253.58 156.61 248.57 157.46 244.54 158.54 249.55 157.68 253.58 156.61" style="fill:#fff;opacity:0.30000000000000004"></polygon><polygon points="253.53 167.03 248.43 164.36 243.42 165.22 248.52 167.89 253.53 167.03" style="fill:#fff;opacity:0.2"></polygon><polygon points="249.55 157.68 244.54 158.54 243.42 165.22 248.43 164.36 249.55 157.68" style="fill:#fff;opacity:0.30000000000000004"></polygon><polygon points="182.93 355.95 182.73 350.33 186.69 345.31 177.71 342.03 172.7 342.89 171.8 355.66 177.92 356.8 182.93 355.95" style="fill:#607D8B"></polygon><polygon points="182.93 355.95 176.81 354.81 171.8 355.66 177.92 356.8 182.93 355.95" style="fill:#fff;opacity:0.30000000000000004"></polygon><polygon points="177.71 342.03 172.7 342.89 171.8 355.66 176.81 354.81 177.71 342.03" style="fill:#fff;opacity:0.2"></polygon><polygon points="133.8 360.58 133.81 356.5 135.87 354.19 135.9 345.54 125.95 342.76 118.42 345.17 113.14 346.27 111.12 353.34 111.09 361.99 116.36 362.86 125.34 366.35 131.96 361.65 133.8 360.58" style="fill:#607D8B"></polygon><polygon points="133.82 351.92 133.81 356.5 135.87 354.19 135.9 345.54 131.43 350.54 131.42 353.39 131.98 353 133.82 351.92" style="fill:#fff;opacity:0.2"></polygon><polygon points="131.98 353 131.96 361.65 133.8 360.58 133.81 356.5 133.82 351.92 131.98 353" style="fill:#fff;opacity:0.30000000000000004"></polygon><polygon points="111.12 353.34 111.09 361.99 116.36 362.86 116.38 354.21 111.12 353.34" style="fill:#fff;opacity:0.30000000000000004"></polygon><polygon points="131.98 353 131.42 353.39 125.36 357.7 125.34 366.35 131.96 361.65 131.98 353" style="fill:#fff;opacity:0.30000000000000004"></polygon><polygon points="116.38 354.21 116.36 362.86 125.34 366.35 125.36 357.7 116.38 354.21" style="fill:#fff;opacity:0.2"></polygon></g><g id="freepik--Character--inject-59"><polygon points="265.16 233.41 244.43 217.22 242.41 220.87 263.45 237.36 265.16 233.41" style="fill:#263238"></polygon><path d="M227,248l-11.63-1.07c1.47,7.39,4.06,17.62,4.06,17.62l14-4.08Z" style="fill:#455a64"></path><path d="M193.08,358.45a12.15,12.15,0,0,0,7.68-1.15,55.06,55.06,0,0,0,4.82-3.26,9.09,9.09,0,0,1,3.95-1.6,15.93,15.93,0,0,0,4.61-1.21,7.13,7.13,0,0,0,3.84-3.64,2.55,2.55,0,0,0,0-2.06l.37.41a2.62,2.62,0,0,1,.42,2.76,7.34,7.34,0,0,1-3.92,3.71,15.91,15.91,0,0,1-4.7,1.23,9.29,9.29,0,0,0-4,1.64c-1.66,1.09-3.17,2.41-4.93,3.33a12.42,12.42,0,0,1-7.84,1.17,4.19,4.19,0,0,1-2.87-1.56,2.8,2.8,0,0,1-.4-1.65c.06.12.12.24.19.36A4.13,4.13,0,0,0,193.08,358.45Z"></path><path d="M217.57,344.89a3.1,3.1,0,0,1,.4.64,2.55,2.55,0,0,1,0,2.06,7.13,7.13,0,0,1-3.84,3.64,15.93,15.93,0,0,1-4.61,1.21,9.09,9.09,0,0,0-3.95,1.6,55.06,55.06,0,0,1-4.82,3.26,12.15,12.15,0,0,1-7.68,1.15,4.13,4.13,0,0,1-2.82-1.52c-.07-.12-.13-.24-.19-.36a3.22,3.22,0,0,1,.23-2.75,6,6,0,0,1,2.36-2.2c1-.54,2-1,2.9-1.5a24.41,24.41,0,0,0,4.21-3.32q1.83-1.68,3.67-3.35l13.28.53S217.13,344.39,217.57,344.89Z" style="fill:#263238"></path><path d="M290.89,295.61a12.14,12.14,0,0,0-2.48-7.36,57,57,0,0,0-4.05-4.18,9,9,0,0,1-2.27-3.61,16.18,16.18,0,0,0-2-4.32,7.17,7.17,0,0,0-4.26-3.15,2.53,2.53,0,0,0-2,.37l.34-.43a2.61,2.61,0,0,1,2.64-.9,7.29,7.29,0,0,1,4.34,3.21,16.68,16.68,0,0,1,2,4.41,9.26,9.26,0,0,0,2.31,3.68,57.45,57.45,0,0,1,4.14,4.27,12.43,12.43,0,0,1,2.53,7.51,4.2,4.2,0,0,1-1,3.1,2.74,2.74,0,0,1-1.56.69,2.6,2.6,0,0,0,.31-.25A4.1,4.1,0,0,0,290.89,295.61Z"></path><path d="M273.25,273.87a2.47,2.47,0,0,1,.56-.51,2.53,2.53,0,0,1,2-.37,7.17,7.17,0,0,1,4.26,3.15,16.18,16.18,0,0,1,2,4.32,9,9,0,0,0,2.27,3.61,57,57,0,0,1,4.05,4.18,12.14,12.14,0,0,1,2.48,7.36,4.1,4.1,0,0,1-1,3,2.6,2.6,0,0,1-.31.25,3.23,3.23,0,0,1-2.75.25,6.08,6.08,0,0,1-2.58-1.94c-.7-.83-1.28-1.76-2-2.59a24.66,24.66,0,0,0-4-3.56l-3.95-3-1.8-13.17S272.83,274.39,273.25,273.87Z" style="fill:#263238"></path><path d="M245.09,271.65l.61,16.28c7.38-7.48,26.6-14.46,26.6-14.46,7.28,5.36,5.66,11.53,2.93,14.46-15.07,8.2-32.26,19.22-36.21,18.31s-9.15-6.89-13-18.16l3.42-18.89Z" style="fill:#37474f"></path><path d="M252.88,245.76c2.43,11.94,1.51,17.19-7.79,25.89s-24.57,20.94-24.57,20.94c3.74,12.13-1.82,28.11-2,34.28s-1.05,17.51-1.05,17.51c-8.5,4.55-14-.93-14-.93l.29-53.59a19.39,19.39,0,0,1,4.79-12.77L227,255.87V248Z" style="fill:#455a64"></path><path d="M187.43,214.28a10,10,0,0,1-5,.36c0-3.23,0-6.83-.26-11.52-.61-10.12,2.12-15.68,4.38-17.7s6.13-2.06,7.58-.78-2.09,5.94-2.59,10c2-2.36,3-3.17,4.95-1.72a12.65,12.65,0,0,0-2.46,4.42c-.4,2-2.56,3.44-3.17,5.12-.46,1.29,0,5.47.77,9.05A9.93,9.93,0,0,1,187.43,214.28Z" style="fill:#ffa8a7"></path><path d="M187.43,214.28a9.93,9.93,0,0,0,4.22-2.79c.23,1.07.47,2.09.72,2.95,0,0,7.82-10.72,9.57-12.74s3.37-6.88,11-7.77l-.93,18.9s-15.5,17.66-20.83,20.63-7.08-.88-8.16-8a69.2,69.2,0,0,1-.61-10.79A10,10,0,0,0,187.43,214.28Z" style="fill:#e0e0e0"></path><path d="M193.56,225.89c1.22-4.4-.6-9.86-1.19-11.45l1.33-1.82A15.39,15.39,0,0,1,193.56,225.89Z" style="opacity:0.1"></path><path d="M235.89,193.53c4.45-.61,9.2.15,14.06,1,1.11,13.14.62,26.82,0,31.75l3.84,20.63c-15.07,9.11-34.29,5.06-38.13,2.43-6.07-23.66-7.58-46-2.68-55.37l12-2Z" style="fill:#f0f0f0"></path><path d="M237.78,192.27c4.45-.6,7.31,1.41,12.17,2.22,1.11,13.14.62,26.82,0,31.75l3.84,20.63c-15.07,9.11-34.29,5.06-38.13,2.43-6.07-23.66-7.58-46-2.68-55.37l12-2Z" style="fill:#e6e6e6"></path><path d="M226.28,202.73l3.52-2.79a20.18,20.18,0,0,0-3.44-1.32l-1.4.69Z" style="fill:#607D8B"></path><polygon points="222.5 202.44 221.72 201.96 220.43 199.13 221.93 198.62 222.84 199.31 222.5 202.44" style="fill:#607D8B"></polygon><path d="M225.34,204.67c2.65,10.55,15,17.44,25.23,16.7a6.16,6.16,0,0,1,4.09,1.06,18.35,18.35,0,0,1,4,3.85,1.62,1.62,0,0,1-.67,2.47,43,43,0,0,1-7,2.14,15,15,0,0,1-7.52-.19c-18.53-5.37-21.1-17.24-20.6-26Z" style="fill:#607D8B"></path><path d="M222.84,205.14c0-.15,0-.31,0-.47h2.48c0,.05,0,.1,0,.16a2.47,2.47,0,0,1-1.18.52A2.36,2.36,0,0,1,222.84,205.14Z" style="opacity:0.30000000000000004"></path><path d="M225,199.31a6.56,6.56,0,0,0-2.12,0,5.5,5.5,0,0,0-1.12,2.65,7.13,7.13,0,0,0,1.14,2.71c.64.49,2.48,0,2.48,0a13.89,13.89,0,0,0,1.23-2,1.61,1.61,0,0,0,0-1.39A6.1,6.1,0,0,0,225,199.31Z" style="fill:#607D8B"></path><path d="M218.26,253a12.53,12.53,0,0,0,7.47,4.35l-6.26,7.17a20,20,0,0,1,3.13-6.3A10.55,10.55,0,0,1,218.26,253Z" style="opacity:0.30000000000000004"></path><path d="M224,199c-2.85-.76-4.67,2.4-4.67,2.4-.18-7,3.46-9.68,3.46-9.68Z" style="fill:#e0e0e0"></path><path d="M236.16,164.4l3.82-2.52a3.46,3.46,0,0,0-2.63-1.21,2.19,2.19,0,0,0-2,2.33c-.12-2.29-2.09-4.34-4.15-5.34a13.32,13.32,0,0,0-6.71-1c-2.28.15-4.54.59-6.83.67a22.41,22.41,0,0,1-7.79-1.1,1.6,1.6,0,0,0-2.06,2,10.87,10.87,0,0,0,2.17,3.95,4.67,4.67,0,0,1-1.63.18,1.62,1.62,0,0,0-1.48,2.45,9,9,0,0,0,4.08,3.29c6.06,9.58,22.42,18.12,22.42,18.12a3.36,3.36,0,0,0,2.61-1.85,10,10,0,0,0,.93-3.18q1-6.3,1.74-12.65a6,6,0,0,0-.12-2.67,2.12,2.12,0,0,0-2-1.52" style="fill:#37474f"></path><path d="M234.57,179.22c.44,3.94,1.32,10.77,1.32,10.77-3.44,4.65-10.12,5.66-11.89,9a54.28,54.28,0,0,1-2.22-11.38l11.38-9Z" style="fill:#ffa8a7"></path><path d="M233.16,178.66l.29.11a12.66,12.66,0,0,1-11.11,13.15,40.7,40.7,0,0,1-.56-4.31Z" style="fill:#f28f8f"></path><path d="M210.94,168.08a41.62,41.62,0,0,0,2.12,19.51,4,4,0,0,0,3.81,2.61c8.64,0,15.45-2.95,16.64-10.63a3.23,3.23,0,0,0,3.77,1,6.76,6.76,0,0,0,3.48-4.82A2.62,2.62,0,0,0,237,173a4.72,4.72,0,0,0-2.39,2.54c-.19.42-.43.93-.89.94s-.74-.52-.88-1a16.64,16.64,0,0,1-.71-5.57,5.15,5.15,0,0,1-6.16-4.06,4.93,4.93,0,0,1-3.63,2.58A4.8,4.8,0,0,1,218.2,167a5.9,5.9,0,0,1-3.3,1.69A6.82,6.82,0,0,1,210.94,168.08Z" style="fill:#ffa8a7"></path><polygon points="218.8 175.54 214.85 180.52 218.59 181.76 218.8 175.54" style="fill:#f28f8f"></polygon><path d="M222,184.13l-3.11,1a1.94,1.94,0,0,0,2.13.93A1.74,1.74,0,0,0,222,184.13Z" style="fill:#f28f8f"></path><path d="M222,184.13l-3.11,1a1.94,1.94,0,0,0,2.13.93A1.74,1.74,0,0,0,222,184.13Z" style="opacity:0.30000000000000004"></path><path d="M220,186a1.82,1.82,0,0,0,1,0,1.56,1.56,0,0,0,1-1.43,1.83,1.83,0,0,0-1.21.24A1.88,1.88,0,0,0,220,186Z" style="fill:#f28f8f"></path><path d="M224.33,176.51a1.12,1.12,0,1,1-1.08-1.15A1.11,1.11,0,0,1,224.33,176.51Z" style="fill:#263238"></path><path d="M215,175.83a1.12,1.12,0,1,1-1.08-1.15A1.11,1.11,0,0,1,215,175.83Z" style="fill:#263238"></path><path d="M215.3,172.14l-2.81-1a1.6,1.6,0,0,1,1.71-.6A1.89,1.89,0,0,1,215.3,172.14Z" style="fill:#263238"></path><path d="M221.74,172.72l2.95-.55a1.6,1.6,0,0,0-1.58-.89A1.9,1.9,0,0,0,221.74,172.72Z" style="fill:#263238"></path><path d="M235.89,190l-.23-1.76a1.45,1.45,0,0,1,.45.06c1.2.65,3.49,4.21,3.49,4.21-.81,1.89-4.66,7.79-7.69,9.81-3.51-1.75-6-4.22-7.91-3.32C224.73,194.89,235.89,190,235.89,190Z" style="fill:#e0e0e0"></path><path d="M242.69,254.79c-8.42-11.82-27-39.17-25.88-61.5l-3.83.64c-1.59,22,15.85,50.72,28,65.61Z" style="fill:#263238"></path><path d="M245.34,264.16l25.74-21.68,4.53,16a.62.62,0,0,1-.13.59v0l0,0-.08.08L250,281.91a.68.68,0,0,0,.18-.67Z" style="fill:#607D8B"></path><path d="M245.34,264.16l25.74-21.68,4.53,16a.62.62,0,0,1-.13.59v0l0,0-.08.08L250,281.91a.68.68,0,0,0,.18-.67Z" style="opacity:0.15"></path><polygon points="246.44 268.07 242.41 253.82 246.44 268.07 246.44 268.07" style="fill:#607D8B"></polygon><path d="M239.68,252.3l0,0Z" style="fill:#607D8B"></path><path d="M250,281.91Z" style="fill:#607D8B"></path><path d="M239.63,252.34h0Z" style="fill:#607D8B"></path><path d="M250,281.92h0Z" style="fill:#607D8B"></path><polygon points="272.02 245.82 272.02 245.82 272.02 245.82 272.02 245.82" style="fill:#607D8B"></polygon><path d="M239.39,253.1a.91.91,0,0,1,.25-.76h0l0,0a1,1,0,0,1,.78-.24h0a2.43,2.43,0,0,1,1.95,1.76l4,14.25,3.73,13.17a.68.68,0,0,1-.18.67h0a.66.66,0,0,1-.66.16l-5-1.52a2,2,0,0,1-1.44-1.68Z" style="fill:#607D8B"></path><path d="M239.39,253.1a.91.91,0,0,1,.25-.76h0l0,0a1,1,0,0,1,.78-.24h0a2.43,2.43,0,0,1,1.95,1.76l4,14.25,3.73,13.17a.68.68,0,0,1-.18.67h0a.66.66,0,0,1-.66.16l-5-1.52a2,2,0,0,1-1.44-1.68Z" style="opacity:0.30000000000000004"></path><polygon points="254.37 254.91 258.92 271.24 258.2 271.92 253.8 255.73 254.37 254.91" style="fill:#607D8B"></polygon><polygon points="264.02 246.28 268.57 262.61 267.85 263.29 263.45 247.1 264.02 246.28" style="fill:#607D8B"></polygon><path d="M265.1,229.6h0s0,0,0,0a.91.91,0,0,1,.75-.22,2.44,2.44,0,0,1,2,1.76l3.47,12.29a4,4,0,0,1-1.21,4.08l-2.68,2.33-18.32,15.94a2.25,2.25,0,0,1-3.64-1.08l-3.07-10.84a2.43,2.43,0,0,0-1.95-1.76h0a1,1,0,0,0-.78.24Z" style="fill:#607D8B"></path><path d="M265.1,229.6h0s0,0,0,0a.91.91,0,0,1,.75-.22,2.44,2.44,0,0,1,2,1.76l3.47,12.29a4,4,0,0,1-1.21,4.08l-2.68,2.33-18.32,15.94a2.25,2.25,0,0,1-3.64-1.08l-3.07-10.84a2.43,2.43,0,0,0-1.95-1.76h0a1,1,0,0,0-.78.24Z" style="fill:#fff;opacity:0.2"></path><path d="M280.84,230.79,280,243.23c-1.76,12.41-4,14.36-9.71,16s-2.36-5.45-1.62-6.77a14.5,14.5,0,0,0,1.14-3.71c-2.79,2.52-3.5,2.25-4.61,1.48-.44-.34,1.65-2.16,1.65-2.16a27.44,27.44,0,0,1,4.28-6.57l-.66-10.76Z" style="fill:#ffa8a7"></path><path d="M244,193.6c8-1.34,13.24,2.69,16.88,5,2.63,1.69,12.29,9,17.44,12.89a8,8,0,0,1,3.2,6.62l-.28,13.15a10.92,10.92,0,0,1-10.92-.45l-.95-9.64s-11.22-5.46-18.76-8.9S242.12,199.22,244,193.6Z" style="fill:#e0e0e0"></path></g><g id="freepik--Clouds--inject-59"><path d="M381.77,61.9c-5.2-3-9.59-1.53-11,3.13a15.41,15.41,0,0,0-5.62-6.24c-4.07-2.35-7.38-.47-7.39,4.21v2.15L352.31,62c-2.85-1.64-5.17-.32-5.18,3a11.33,11.33,0,0,0,5.14,8.91l46.29,26.72c2.86,1.65,5.18.33,5.19-2.94a11.36,11.36,0,0,0-5.15-8.92l-5.47-3.16,0-4C393.17,74.37,388.07,65.54,381.77,61.9Z" style="fill:#e6e6e6"></path><path d="M336.4,79.41c-3.73-2.15-6.88-1.1-7.88,2.25a11,11,0,0,0-4-4.49c-2.92-1.68-5.3-.33-5.3,3v1.54l-3.92-2.26c-2.05-1.19-3.71-.23-3.72,2.12a8.14,8.14,0,0,0,3.7,6.39l33.22,19.19c2.05,1.18,3.71.23,3.72-2.12a8.13,8.13,0,0,0-3.7-6.4l-3.92-2.27V93.56C344.58,88.36,340.93,82,336.4,79.41Z" style="fill:#e6e6e6"></path></g></svg>